<svg width="16" height="16" viewBox="0 0 16 16" fill="none" xmlns="http://www.w3.org/2000/svg">
<circle cx="8" cy="8" r="7.5" stroke="#545454"/>
<path d="M8.33333 3C8.10417 3 7.90799 3.09415 7.74479 3.28245C7.5816 3.47075 7.5 3.69712 7.5 3.96154C7.5 4.22596 7.5816 4.45232 7.74479 4.64062C7.90799 4.82893 8.10417 4.92308 8.33333 4.92308C8.5625 4.92308 8.75868 4.82893 8.92188 4.64062C9.08507 4.45232 9.16667 4.22596 9.16667 3.96154C9.16667 3.69712 9.08507 3.47075 8.92188 3.28245C8.75868 3.09415 8.5625 3 8.33333 3ZM6.43229 12.7115L7.3125 11.0469C7.40972 10.8626 7.48264 10.6783 7.53125 10.494L7.83333 9.34014L8.74479 10.4399L9.54167 12.6454C9.57986 12.7536 9.63976 12.8397 9.72135 12.9038C9.80295 12.9679 9.89583 13 10 13C10.1389 13 10.2569 12.9439 10.3542 12.8317C10.4514 12.7196 10.5 12.5833 10.5 12.4231C10.5 12.355 10.4878 12.2829 10.4635 12.2067L9.73438 10.1334C9.68924 10.0012 9.65365 9.91206 9.6276 9.86599C9.60156 9.81991 9.5434 9.74079 9.45312 9.62861L8.42708 8.35457L8.73958 6.65986L9.03125 7.3149C9.08681 7.45112 9.16319 7.54928 9.26042 7.60938C9.28125 7.62139 9.64062 7.83173 10.3385 8.24038C10.5052 8.33654 10.6146 8.38462 10.6667 8.38462C10.7639 8.38462 10.8438 8.34856 10.9062 8.27644C10.9688 8.20433 11 8.11218 11 8C11 7.83574 10.934 7.71354 10.8021 7.63341L9.60938 6.90024L9.14062 5.66226C9.05382 5.44191 8.93924 5.32171 8.79688 5.30168L7.60417 5.14543C7.49306 5.13341 7.34375 5.17147 7.15625 5.25962L5.89583 5.83654C5.82639 5.86859 5.75868 5.92268 5.69271 5.9988C5.62674 6.07492 5.58333 6.15304 5.5625 6.23317C5.28819 7.05048 5.10764 7.59535 5.02083 7.86779C5.00694 7.90385 5 7.94792 5 8C5 8.10417 5.03299 8.19431 5.09896 8.27043C5.16493 8.34655 5.24306 8.38462 5.33333 8.38462C5.40278 8.38462 5.47309 8.36558 5.54427 8.32752C5.61545 8.28946 5.66146 8.24038 5.68229 8.18029L6.21354 6.56971L7.30729 6.09495L6.54167 10.2236L5.5625 12.1466C5.52083 12.2388 5.5 12.3309 5.5 12.4231C5.5 12.5833 5.54861 12.7196 5.64583 12.8317C5.74306 12.9439 5.86111 13 6 13C6.1875 13 6.3316 12.9038 6.43229 12.7115Z" fill="#545454"/>
</svg>
